<mxfile host="Electron" agent="Mozilla/5.0 (Windows NT 10.0; Win64; x64) AppleWebKit/537.36 (KHTML, like Gecko) draw.io/28.1.2 Chrome/138.0.7204.243 Electron/37.4.0 Safari/537.36" version="28.1.2">
  <diagram name="Page-1" id="e8lrasLOsCljfQ1_XAtb">
    <mxGraphModel dx="319" dy="474" grid="1" gridSize="10" guides="1" tooltips="1" connect="1" arrows="1" fold="1" page="1" pageScale="1" pageWidth="850" pageHeight="1100" math="0" shadow="0">
      <root>
        <mxCell id="0" />
        <mxCell id="1" parent="0" />
        <mxCell id="uumeFUrgT-XQ8EPMhtyP-1" value="Curso" style="whiteSpace=wrap;html=1;align=center;fillColor=#f0a30a;strokeColor=#BD7000;fontColor=#000000;" vertex="1" parent="1">
          <mxGeometry x="70" y="120" width="100" height="40" as="geometry" />
        </mxCell>
        <mxCell id="uumeFUrgT-XQ8EPMhtyP-2" value="Edicion" style="whiteSpace=wrap;html=1;align=center;fillColor=#f0a30a;strokeColor=#BD7000;fontColor=#000000;" vertex="1" parent="1">
          <mxGeometry x="405" y="120" width="100" height="40" as="geometry" />
        </mxCell>
        <mxCell id="uumeFUrgT-XQ8EPMhtyP-3" value="Empleado" style="whiteSpace=wrap;html=1;align=center;fillColor=#f0a30a;strokeColor=#BD7000;fontColor=#000000;" vertex="1" parent="1">
          <mxGeometry x="180" y="340" width="100" height="40" as="geometry" />
        </mxCell>
        <mxCell id="uumeFUrgT-XQ8EPMhtyP-4" value="" style="endArrow=none;html=1;rounded=0;" edge="1" target="uumeFUrgT-XQ8EPMhtyP-5" parent="1" source="uumeFUrgT-XQ8EPMhtyP-3">
          <mxGeometry relative="1" as="geometry">
            <mxPoint x="190" y="255" as="sourcePoint" />
            <mxPoint x="250" y="255" as="targetPoint" />
          </mxGeometry>
        </mxCell>
        <mxCell id="uumeFUrgT-XQ8EPMhtyP-5" value="&lt;u&gt;Cod_empleado&lt;/u&gt;" style="ellipse;whiteSpace=wrap;html=1;align=center;" vertex="1" parent="1">
          <mxGeometry x="190" y="610" width="50" height="30" as="geometry" />
        </mxCell>
        <mxCell id="uumeFUrgT-XQ8EPMhtyP-6" value="" style="endArrow=none;html=1;rounded=0;" edge="1" target="uumeFUrgT-XQ8EPMhtyP-7" parent="1" source="uumeFUrgT-XQ8EPMhtyP-2">
          <mxGeometry relative="1" as="geometry">
            <mxPoint x="285" y="255" as="sourcePoint" />
            <mxPoint x="345" y="255" as="targetPoint" />
          </mxGeometry>
        </mxCell>
        <mxCell id="uumeFUrgT-XQ8EPMhtyP-7" value="&lt;u&gt;ID_edicion&lt;/u&gt;" style="ellipse;whiteSpace=wrap;html=1;align=center;" vertex="1" parent="1">
          <mxGeometry x="430" y="30" width="50" height="30" as="geometry" />
        </mxCell>
        <mxCell id="uumeFUrgT-XQ8EPMhtyP-8" value="" style="endArrow=none;html=1;rounded=0;" edge="1" target="uumeFUrgT-XQ8EPMhtyP-9" parent="1" source="uumeFUrgT-XQ8EPMhtyP-1">
          <mxGeometry relative="1" as="geometry">
            <mxPoint x="70" y="65" as="sourcePoint" />
            <mxPoint x="130" y="65" as="targetPoint" />
          </mxGeometry>
        </mxCell>
        <mxCell id="uumeFUrgT-XQ8EPMhtyP-9" value="&lt;u&gt;Cod_curso&lt;/u&gt;" style="ellipse;whiteSpace=wrap;html=1;align=center;" vertex="1" parent="1">
          <mxGeometry x="90" y="50" width="50" height="30" as="geometry" />
        </mxCell>
        <mxCell id="uumeFUrgT-XQ8EPMhtyP-10" value="" style="endArrow=none;html=1;rounded=0;" edge="1" target="uumeFUrgT-XQ8EPMhtyP-11" parent="1" source="uumeFUrgT-XQ8EPMhtyP-1">
          <mxGeometry relative="1" as="geometry">
            <mxPoint x="160" y="65" as="sourcePoint" />
            <mxPoint x="220" y="65" as="targetPoint" />
          </mxGeometry>
        </mxCell>
        <mxCell id="uumeFUrgT-XQ8EPMhtyP-11" value="Nombre" style="ellipse;whiteSpace=wrap;html=1;align=center;" vertex="1" parent="1">
          <mxGeometry x="155" y="40" width="50" height="30" as="geometry" />
        </mxCell>
        <mxCell id="uumeFUrgT-XQ8EPMhtyP-12" value="" style="endArrow=none;html=1;rounded=0;" edge="1" target="uumeFUrgT-XQ8EPMhtyP-13" parent="1" source="uumeFUrgT-XQ8EPMhtyP-1">
          <mxGeometry relative="1" as="geometry">
            <mxPoint x="5" y="85" as="sourcePoint" />
            <mxPoint x="65" y="85" as="targetPoint" />
          </mxGeometry>
        </mxCell>
        <mxCell id="uumeFUrgT-XQ8EPMhtyP-13" value="Horas" style="ellipse;whiteSpace=wrap;html=1;align=center;" vertex="1" parent="1">
          <mxGeometry x="30" y="70" width="50" height="30" as="geometry" />
        </mxCell>
        <mxCell id="uumeFUrgT-XQ8EPMhtyP-14" value="" style="endArrow=none;html=1;rounded=0;" edge="1" target="uumeFUrgT-XQ8EPMhtyP-15" parent="1" source="uumeFUrgT-XQ8EPMhtyP-2">
          <mxGeometry relative="1" as="geometry">
            <mxPoint x="478" y="75" as="sourcePoint" />
            <mxPoint x="538" y="75" as="targetPoint" />
          </mxGeometry>
        </mxCell>
        <mxCell id="uumeFUrgT-XQ8EPMhtyP-15" value="Fecha_inicio" style="ellipse;whiteSpace=wrap;html=1;align=center;" vertex="1" parent="1">
          <mxGeometry x="513" y="60" width="50" height="30" as="geometry" />
        </mxCell>
        <mxCell id="uumeFUrgT-XQ8EPMhtyP-16" value="" style="endArrow=none;html=1;rounded=0;exitX=0.5;exitY=1;exitDx=0;exitDy=0;" edge="1" target="uumeFUrgT-XQ8EPMhtyP-17" parent="1" source="uumeFUrgT-XQ8EPMhtyP-2">
          <mxGeometry relative="1" as="geometry">
            <mxPoint x="340" y="85" as="sourcePoint" />
            <mxPoint x="400" y="85" as="targetPoint" />
          </mxGeometry>
        </mxCell>
        <mxCell id="uumeFUrgT-XQ8EPMhtyP-17" value="Lugar" style="ellipse;whiteSpace=wrap;html=1;align=center;" vertex="1" parent="1">
          <mxGeometry x="380" y="60" width="50" height="30" as="geometry" />
        </mxCell>
        <mxCell id="uumeFUrgT-XQ8EPMhtyP-18" value="" style="endArrow=none;html=1;rounded=0;" edge="1" target="uumeFUrgT-XQ8EPMhtyP-19" parent="1" source="uumeFUrgT-XQ8EPMhtyP-3">
          <mxGeometry relative="1" as="geometry">
            <mxPoint x="325" y="435" as="sourcePoint" />
            <mxPoint x="385" y="435" as="targetPoint" />
          </mxGeometry>
        </mxCell>
        <mxCell id="uumeFUrgT-XQ8EPMhtyP-19" value="Nombre" style="ellipse;whiteSpace=wrap;html=1;align=center;" vertex="1" parent="1">
          <mxGeometry x="290" y="430" width="50" height="30" as="geometry" />
        </mxCell>
        <mxCell id="uumeFUrgT-XQ8EPMhtyP-20" value="" style="endArrow=none;html=1;rounded=0;" edge="1" target="uumeFUrgT-XQ8EPMhtyP-21" parent="1" source="uumeFUrgT-XQ8EPMhtyP-3">
          <mxGeometry relative="1" as="geometry">
            <mxPoint x="77.5" y="415" as="sourcePoint" />
            <mxPoint x="137.5" y="415" as="targetPoint" />
          </mxGeometry>
        </mxCell>
        <mxCell id="uumeFUrgT-XQ8EPMhtyP-21" value="Apellido" style="ellipse;whiteSpace=wrap;html=1;align=center;" vertex="1" parent="1">
          <mxGeometry x="112.5" y="400" width="50" height="30" as="geometry" />
        </mxCell>
        <mxCell id="uumeFUrgT-XQ8EPMhtyP-22" value="" style="endArrow=none;html=1;rounded=0;" edge="1" target="uumeFUrgT-XQ8EPMhtyP-23" parent="1" source="uumeFUrgT-XQ8EPMhtyP-1">
          <mxGeometry relative="1" as="geometry">
            <mxPoint x="200" y="255" as="sourcePoint" />
            <mxPoint x="260" y="255" as="targetPoint" />
          </mxGeometry>
        </mxCell>
        <mxCell id="uumeFUrgT-XQ8EPMhtyP-23" value="Coste" style="ellipse;whiteSpace=wrap;html=1;align=center;" vertex="1" parent="1">
          <mxGeometry x="10" y="160" width="50" height="30" as="geometry" />
        </mxCell>
        <mxCell id="uumeFUrgT-XQ8EPMhtyP-24" value="" style="endArrow=none;html=1;rounded=0;exitX=1;exitY=0.5;exitDx=0;exitDy=0;" edge="1" target="uumeFUrgT-XQ8EPMhtyP-25" parent="1" source="uumeFUrgT-XQ8EPMhtyP-1">
          <mxGeometry relative="1" as="geometry">
            <mxPoint x="170" y="15" as="sourcePoint" />
            <mxPoint x="230" y="15" as="targetPoint" />
          </mxGeometry>
        </mxCell>
        <mxCell id="uumeFUrgT-XQ8EPMhtyP-25" value="Descripcion" style="ellipse;whiteSpace=wrap;html=1;align=center;" vertex="1" parent="1">
          <mxGeometry x="220" y="40" width="50" height="30" as="geometry" />
        </mxCell>
        <mxCell id="uumeFUrgT-XQ8EPMhtyP-26" value="" style="endArrow=none;html=1;rounded=0;" edge="1" target="uumeFUrgT-XQ8EPMhtyP-27" parent="1" source="uumeFUrgT-XQ8EPMhtyP-2">
          <mxGeometry relative="1" as="geometry">
            <mxPoint x="520" y="140" as="sourcePoint" />
            <mxPoint x="580" y="140" as="targetPoint" />
          </mxGeometry>
        </mxCell>
        <mxCell id="uumeFUrgT-XQ8EPMhtyP-27" value="Fecha_fin" style="ellipse;whiteSpace=wrap;html=1;align=center;" vertex="1" parent="1">
          <mxGeometry x="555" y="125" width="50" height="30" as="geometry" />
        </mxCell>
        <mxCell id="uumeFUrgT-XQ8EPMhtyP-28" value="" style="endArrow=none;html=1;rounded=0;exitX=1;exitY=0.75;exitDx=0;exitDy=0;" edge="1" target="uumeFUrgT-XQ8EPMhtyP-29" parent="1" source="uumeFUrgT-XQ8EPMhtyP-2">
          <mxGeometry relative="1" as="geometry">
            <mxPoint x="390" y="255" as="sourcePoint" />
            <mxPoint x="450" y="255" as="targetPoint" />
          </mxGeometry>
        </mxCell>
        <mxCell id="uumeFUrgT-XQ8EPMhtyP-29" value="Horario" style="ellipse;whiteSpace=wrap;html=1;align=center;" vertex="1" parent="1">
          <mxGeometry x="550" y="190" width="50" height="30" as="geometry" />
        </mxCell>
        <mxCell id="uumeFUrgT-XQ8EPMhtyP-30" value="" style="endArrow=none;html=1;rounded=0;" edge="1" target="uumeFUrgT-XQ8EPMhtyP-31" parent="1" source="uumeFUrgT-XQ8EPMhtyP-2">
          <mxGeometry relative="1" as="geometry">
            <mxPoint x="390" y="255" as="sourcePoint" />
            <mxPoint x="450" y="255" as="targetPoint" />
          </mxGeometry>
        </mxCell>
        <mxCell id="uumeFUrgT-XQ8EPMhtyP-31" value="Cod_curso" style="ellipse;whiteSpace=wrap;html=1;align=center;" vertex="1" parent="1">
          <mxGeometry x="530" y="240" width="50" height="30" as="geometry" />
        </mxCell>
        <mxCell id="uumeFUrgT-XQ8EPMhtyP-32" value="" style="endArrow=none;html=1;rounded=0;exitX=0.25;exitY=1;exitDx=0;exitDy=0;" edge="1" target="uumeFUrgT-XQ8EPMhtyP-33" parent="1" source="uumeFUrgT-XQ8EPMhtyP-3">
          <mxGeometry relative="1" as="geometry">
            <mxPoint x="280" y="255" as="sourcePoint" />
            <mxPoint x="340" y="255" as="targetPoint" />
          </mxGeometry>
        </mxCell>
        <mxCell id="uumeFUrgT-XQ8EPMhtyP-33" value="Fecha_nac" style="ellipse;whiteSpace=wrap;html=1;align=center;" vertex="1" parent="1">
          <mxGeometry x="120" y="490" width="50" height="30" as="geometry" />
        </mxCell>
        <mxCell id="uumeFUrgT-XQ8EPMhtyP-34" value="" style="endArrow=none;html=1;rounded=0;exitX=0;exitY=0.5;exitDx=0;exitDy=0;" edge="1" target="uumeFUrgT-XQ8EPMhtyP-35" parent="1" source="uumeFUrgT-XQ8EPMhtyP-3">
          <mxGeometry relative="1" as="geometry">
            <mxPoint x="280" y="255" as="sourcePoint" />
            <mxPoint x="340" y="255" as="targetPoint" />
          </mxGeometry>
        </mxCell>
        <mxCell id="uumeFUrgT-XQ8EPMhtyP-35" value="NIF" style="ellipse;whiteSpace=wrap;html=1;align=center;" vertex="1" parent="1">
          <mxGeometry x="30" y="410" width="50" height="30" as="geometry" />
        </mxCell>
        <mxCell id="uumeFUrgT-XQ8EPMhtyP-36" value="" style="endArrow=none;html=1;rounded=0;" edge="1" target="uumeFUrgT-XQ8EPMhtyP-37" parent="1" source="uumeFUrgT-XQ8EPMhtyP-3">
          <mxGeometry relative="1" as="geometry">
            <mxPoint x="280" y="255" as="sourcePoint" />
            <mxPoint x="340" y="255" as="targetPoint" />
          </mxGeometry>
        </mxCell>
        <mxCell id="uumeFUrgT-XQ8EPMhtyP-37" value="Telefono" style="ellipse;whiteSpace=wrap;html=1;align=center;" vertex="1" parent="1">
          <mxGeometry x="40" y="330" width="50" height="30" as="geometry" />
        </mxCell>
        <mxCell id="uumeFUrgT-XQ8EPMhtyP-38" value="" style="endArrow=none;html=1;rounded=0;exitX=1;exitY=0.5;exitDx=0;exitDy=0;" edge="1" target="uumeFUrgT-XQ8EPMhtyP-39" parent="1" source="uumeFUrgT-XQ8EPMhtyP-3">
          <mxGeometry relative="1" as="geometry">
            <mxPoint x="280" y="255" as="sourcePoint" />
            <mxPoint x="340" y="255" as="targetPoint" />
          </mxGeometry>
        </mxCell>
        <mxCell id="uumeFUrgT-XQ8EPMhtyP-39" value="Direccion" style="ellipse;whiteSpace=wrap;html=1;align=center;" vertex="1" parent="1">
          <mxGeometry x="365" y="390" width="50" height="30" as="geometry" />
        </mxCell>
        <mxCell id="uumeFUrgT-XQ8EPMhtyP-40" value="" style="endArrow=none;html=1;rounded=0;" edge="1" target="uumeFUrgT-XQ8EPMhtyP-41" parent="1" source="uumeFUrgT-XQ8EPMhtyP-3">
          <mxGeometry relative="1" as="geometry">
            <mxPoint x="120" y="335" as="sourcePoint" />
            <mxPoint x="180" y="335" as="targetPoint" />
          </mxGeometry>
        </mxCell>
        <mxCell id="uumeFUrgT-XQ8EPMhtyP-41" value="Sexo" style="ellipse;whiteSpace=wrap;html=1;align=center;" vertex="1" parent="1">
          <mxGeometry x="190" y="535" width="50" height="30" as="geometry" />
        </mxCell>
        <mxCell id="uumeFUrgT-XQ8EPMhtyP-42" value="" style="endArrow=none;html=1;rounded=0;" edge="1" target="uumeFUrgT-XQ8EPMhtyP-43" parent="1" source="uumeFUrgT-XQ8EPMhtyP-3">
          <mxGeometry relative="1" as="geometry">
            <mxPoint x="295" y="535" as="sourcePoint" />
            <mxPoint x="355" y="535" as="targetPoint" />
          </mxGeometry>
        </mxCell>
        <mxCell id="uumeFUrgT-XQ8EPMhtyP-43" value="Nacionalidad" style="ellipse;whiteSpace=wrap;html=1;align=center;" vertex="1" parent="1">
          <mxGeometry x="330" y="520" width="50" height="30" as="geometry" />
        </mxCell>
        <mxCell id="uumeFUrgT-XQ8EPMhtyP-44" value="" style="endArrow=none;html=1;rounded=0;" edge="1" target="uumeFUrgT-XQ8EPMhtyP-45" parent="1" source="uumeFUrgT-XQ8EPMhtyP-3">
          <mxGeometry relative="1" as="geometry">
            <mxPoint x="120" y="335" as="sourcePoint" />
            <mxPoint x="180" y="335" as="targetPoint" />
          </mxGeometry>
        </mxCell>
        <mxCell id="uumeFUrgT-XQ8EPMhtyP-45" value="Firma" style="ellipse;whiteSpace=wrap;html=1;align=center;" vertex="1" parent="1">
          <mxGeometry x="112.5" y="565" width="50" height="30" as="geometry" />
        </mxCell>
        <mxCell id="uumeFUrgT-XQ8EPMhtyP-48" value="" style="endArrow=none;html=1;rounded=0;" edge="1" target="uumeFUrgT-XQ8EPMhtyP-49" parent="1" source="uumeFUrgT-XQ8EPMhtyP-3">
          <mxGeometry relative="1" as="geometry">
            <mxPoint x="120" y="335" as="sourcePoint" />
            <mxPoint x="180" y="335" as="targetPoint" />
          </mxGeometry>
        </mxCell>
        <mxCell id="uumeFUrgT-XQ8EPMhtyP-49" value="Salario" style="ellipse;whiteSpace=wrap;html=1;align=center;" vertex="1" parent="1">
          <mxGeometry x="30" y="535" width="50" height="30" as="geometry" />
        </mxCell>
        <mxCell id="uumeFUrgT-XQ8EPMhtyP-50" value="" style="endArrow=none;html=1;rounded=0;" edge="1" target="uumeFUrgT-XQ8EPMhtyP-51" parent="1" source="uumeFUrgT-XQ8EPMhtyP-3">
          <mxGeometry relative="1" as="geometry">
            <mxPoint x="240" y="625" as="sourcePoint" />
            <mxPoint x="300" y="625" as="targetPoint" />
          </mxGeometry>
        </mxCell>
        <mxCell id="uumeFUrgT-XQ8EPMhtyP-51" value="Capacitado" style="ellipse;whiteSpace=wrap;html=1;align=center;" vertex="1" parent="1">
          <mxGeometry x="270" y="550" width="50" height="30" as="geometry" />
        </mxCell>
        <mxCell id="uumeFUrgT-XQ8EPMhtyP-52" value="Prerrequisito" style="shape=rhombus;perimeter=rhombusPerimeter;whiteSpace=wrap;html=1;align=center;fillColor=#76608a;fontColor=#ffffff;strokeColor=#432D57;" vertex="1" parent="1">
          <mxGeometry x="260" y="160" width="90" height="40" as="geometry" />
        </mxCell>
        <mxCell id="uumeFUrgT-XQ8EPMhtyP-53" value="" style="endArrow=none;html=1;rounded=0;exitX=0;exitY=0.5;exitDx=0;exitDy=0;" edge="1" source="uumeFUrgT-XQ8EPMhtyP-52" parent="1" target="uumeFUrgT-XQ8EPMhtyP-1">
          <mxGeometry relative="1" as="geometry">
            <mxPoint x="182" y="160" as="sourcePoint" />
            <mxPoint x="135" y="190" as="targetPoint" />
          </mxGeometry>
        </mxCell>
        <mxCell id="uumeFUrgT-XQ8EPMhtyP-54" value="(0,N)" style="resizable=0;html=1;whiteSpace=wrap;align=right;verticalAlign=bottom;" connectable="0" vertex="1" parent="uumeFUrgT-XQ8EPMhtyP-53">
          <mxGeometry x="1" relative="1" as="geometry">
            <mxPoint x="34" as="offset" />
          </mxGeometry>
        </mxCell>
        <mxCell id="uumeFUrgT-XQ8EPMhtyP-55" value="" style="endArrow=none;html=1;rounded=0;exitX=1;exitY=0.5;exitDx=0;exitDy=0;" edge="1" source="uumeFUrgT-XQ8EPMhtyP-52" parent="1" target="uumeFUrgT-XQ8EPMhtyP-1">
          <mxGeometry relative="1" as="geometry">
            <mxPoint x="182" y="160" as="sourcePoint" />
            <mxPoint x="355" y="190" as="targetPoint" />
          </mxGeometry>
        </mxCell>
        <mxCell id="uumeFUrgT-XQ8EPMhtyP-56" value="(1,N)" style="resizable=0;html=1;whiteSpace=wrap;align=right;verticalAlign=bottom;" connectable="0" vertex="1" parent="uumeFUrgT-XQ8EPMhtyP-55">
          <mxGeometry x="1" relative="1" as="geometry">
            <mxPoint as="offset" />
          </mxGeometry>
        </mxCell>
        <mxCell id="uumeFUrgT-XQ8EPMhtyP-57" value="" style="endArrow=none;html=1;rounded=0;" edge="1" target="uumeFUrgT-XQ8EPMhtyP-58" parent="1" source="uumeFUrgT-XQ8EPMhtyP-52">
          <mxGeometry relative="1" as="geometry">
            <mxPoint x="150" y="305" as="sourcePoint" />
            <mxPoint x="210" y="305" as="targetPoint" />
          </mxGeometry>
        </mxCell>
        <mxCell id="uumeFUrgT-XQ8EPMhtyP-58" value="Obligatorio/recomendado" style="ellipse;whiteSpace=wrap;html=1;align=center;" vertex="1" parent="1">
          <mxGeometry x="290" y="80" width="50" height="30" as="geometry" />
        </mxCell>
        <mxCell id="uumeFUrgT-XQ8EPMhtyP-59" value="Imparte" style="shape=rhombus;perimeter=rhombusPerimeter;whiteSpace=wrap;html=1;align=center;fillColor=#76608a;fontColor=#ffffff;strokeColor=#432D57;" vertex="1" parent="1">
          <mxGeometry x="410" y="290" width="90" height="40" as="geometry" />
        </mxCell>
        <mxCell id="uumeFUrgT-XQ8EPMhtyP-60" value="" style="endArrow=none;html=1;rounded=0;exitX=0;exitY=0.5;exitDx=0;exitDy=0;" edge="1" source="uumeFUrgT-XQ8EPMhtyP-59" parent="1" target="uumeFUrgT-XQ8EPMhtyP-3">
          <mxGeometry relative="1" as="geometry">
            <mxPoint x="287" y="280" as="sourcePoint" />
            <mxPoint x="240" y="310" as="targetPoint" />
          </mxGeometry>
        </mxCell>
        <mxCell id="uumeFUrgT-XQ8EPMhtyP-61" value="(0,N)" style="resizable=0;html=1;whiteSpace=wrap;align=right;verticalAlign=bottom;" connectable="0" vertex="1" parent="uumeFUrgT-XQ8EPMhtyP-60">
          <mxGeometry x="1" relative="1" as="geometry">
            <mxPoint x="34" as="offset" />
          </mxGeometry>
        </mxCell>
        <mxCell id="uumeFUrgT-XQ8EPMhtyP-62" value="" style="endArrow=none;html=1;rounded=0;exitX=1;exitY=0.5;exitDx=0;exitDy=0;" edge="1" source="uumeFUrgT-XQ8EPMhtyP-59" parent="1" target="uumeFUrgT-XQ8EPMhtyP-2">
          <mxGeometry relative="1" as="geometry">
            <mxPoint x="287" y="280" as="sourcePoint" />
            <mxPoint x="460" y="310" as="targetPoint" />
          </mxGeometry>
        </mxCell>
        <mxCell id="uumeFUrgT-XQ8EPMhtyP-63" value="(0,N)" style="resizable=0;html=1;whiteSpace=wrap;align=right;verticalAlign=bottom;" connectable="0" vertex="1" parent="uumeFUrgT-XQ8EPMhtyP-62">
          <mxGeometry x="1" relative="1" as="geometry">
            <mxPoint as="offset" />
          </mxGeometry>
        </mxCell>
        <mxCell id="uumeFUrgT-XQ8EPMhtyP-64" value="" style="endArrow=none;html=1;rounded=0;" edge="1" target="uumeFUrgT-XQ8EPMhtyP-65" parent="1" source="uumeFUrgT-XQ8EPMhtyP-59">
          <mxGeometry relative="1" as="geometry">
            <mxPoint x="375" y="365" as="sourcePoint" />
            <mxPoint x="435" y="365" as="targetPoint" />
          </mxGeometry>
        </mxCell>
        <mxCell id="uumeFUrgT-XQ8EPMhtyP-65" value="Capacitados" style="ellipse;whiteSpace=wrap;html=1;align=center;" vertex="1" parent="1">
          <mxGeometry x="480" y="350" width="50" height="30" as="geometry" />
        </mxCell>
        <mxCell id="uumeFUrgT-XQ8EPMhtyP-66" value="Asiste" style="shape=rhombus;perimeter=rhombusPerimeter;whiteSpace=wrap;html=1;align=center;fillColor=#76608a;fontColor=#ffffff;strokeColor=#432D57;" vertex="1" parent="1">
          <mxGeometry x="230" y="235" width="90" height="40" as="geometry" />
        </mxCell>
        <mxCell id="uumeFUrgT-XQ8EPMhtyP-67" value="" style="endArrow=none;html=1;rounded=0;exitX=0;exitY=0.5;exitDx=0;exitDy=0;" edge="1" source="uumeFUrgT-XQ8EPMhtyP-66" parent="1" target="uumeFUrgT-XQ8EPMhtyP-3">
          <mxGeometry relative="1" as="geometry">
            <mxPoint x="287" y="230" as="sourcePoint" />
            <mxPoint x="240" y="260" as="targetPoint" />
          </mxGeometry>
        </mxCell>
        <mxCell id="uumeFUrgT-XQ8EPMhtyP-68" value="(0,N)" style="resizable=0;html=1;whiteSpace=wrap;align=right;verticalAlign=bottom;" connectable="0" vertex="1" parent="uumeFUrgT-XQ8EPMhtyP-67">
          <mxGeometry x="1" relative="1" as="geometry">
            <mxPoint x="34" as="offset" />
          </mxGeometry>
        </mxCell>
        <mxCell id="uumeFUrgT-XQ8EPMhtyP-69" value="" style="endArrow=none;html=1;rounded=0;exitX=1;exitY=0.5;exitDx=0;exitDy=0;" edge="1" source="uumeFUrgT-XQ8EPMhtyP-66" parent="1" target="uumeFUrgT-XQ8EPMhtyP-2">
          <mxGeometry relative="1" as="geometry">
            <mxPoint x="287" y="230" as="sourcePoint" />
            <mxPoint x="460" y="260" as="targetPoint" />
          </mxGeometry>
        </mxCell>
        <mxCell id="uumeFUrgT-XQ8EPMhtyP-70" value="(0,N)" style="resizable=0;html=1;whiteSpace=wrap;align=right;verticalAlign=bottom;" connectable="0" vertex="1" parent="uumeFUrgT-XQ8EPMhtyP-69">
          <mxGeometry x="1" relative="1" as="geometry">
            <mxPoint as="offset" />
          </mxGeometry>
        </mxCell>
      </root>
    </mxGraphModel>
  </diagram>
</mxfile>
